<mxfile host="app.diagrams.net" modified="2024-02-05T03:47:20.294Z" agent="Mozilla/5.0 (Macintosh; Intel Mac OS X 10_15_7) AppleWebKit/537.36 (KHTML, like Gecko) Chrome/121.0.0.0 Safari/537.36" etag="M3Ydv7cLXJ3Gq7FJsbBM" version="23.1.1" type="github">
  <diagram name="Page-1" id="TOswSueE-nIQR9RVsRZH">
    <mxGraphModel dx="2074" dy="637" grid="1" gridSize="10" guides="1" tooltips="1" connect="1" arrows="1" fold="1" page="1" pageScale="1" pageWidth="850" pageHeight="1100" math="0" shadow="0">
      <root>
        <mxCell id="0" />
        <mxCell id="1" parent="0" />
      </root>
    </mxGraphModel>
  </diagram>
</mxfile>
